<svg width="157" height="36" viewBox="0 0 157 36" fill="none" xmlns="http://www.w3.org/2000/svg">
<path d="M60.68 9.96001C62.11 9.92001 63.53 10.13 64.88 10.58C65.92 10.93 66.85 11.53 67.6 12.32C68.3 13.1 68.8 14.03 69.05 15.04C69.35 16.19 69.5 17.37 69.49 18.55V31.73C68.71 31.9 67.54 32.1 65.98 32.34C64.22 32.59 62.45 32.71 60.68 32.7C59.48 32.71 58.28 32.59 57.11 32.33C56.12 32.12 55.18 31.71 54.34 31.13C53.57 30.57 52.96 29.83 52.55 28.97C52.09 27.94 51.87 26.82 51.9 25.69C51.86 24.59 52.12 23.51 52.63 22.53C53.11 21.68 53.78 20.96 54.6 20.43C55.48 19.87 56.46 19.47 57.49 19.27C58.62 19.03 59.77 18.91 60.92 18.91C61.5 18.91 62.09 18.95 62.66 19.02C63.32 19.1 63.97 19.22 64.61 19.38V18.55C64.61 17.98 64.54 17.42 64.4 16.87C64.27 16.35 64.02 15.88 63.67 15.47C63.3 15.05 62.83 14.72 62.3 14.53C61.61 14.29 60.89 14.17 60.16 14.19C59.09 14.19 58.01 14.27 56.95 14.45C56.14 14.58 55.35 14.78 54.58 15.05L53.97 10.97C54.88 10.68 55.81 10.46 56.76 10.3C58.05 10.07 59.36 9.96001 60.67 9.97001L60.68 9.96001ZM61.09 28.73C62.28 28.76 63.46 28.68 64.63 28.48V22.93C64.23 22.82 63.83 22.73 63.42 22.67C62.84 22.58 62.26 22.53 61.67 22.54C61.11 22.54 60.54 22.58 59.98 22.66C59.45 22.73 58.93 22.89 58.44 23.12C58 23.33 57.62 23.65 57.34 24.05C57.05 24.5 56.9 25.03 56.92 25.57C56.81 26.54 57.25 27.49 58.04 28.05C58.97 28.55 60.02 28.79 61.07 28.74L61.09 28.73Z" fill="#1F2937"/>
<path d="M81.12 32.67C79.87 32.67 78.62 32.51 77.41 32.17C76.54 31.93 75.73 31.48 75.07 30.86C74.48 30.27 74.06 29.54 73.84 28.74C73.59 27.8 73.47 26.82 73.49 25.85V0.82L78.5 0V24.9C78.49 25.42 78.54 25.93 78.65 26.44C78.73 26.83 78.91 27.19 79.17 27.5C79.45 27.81 79.8 28.04 80.19 28.17C80.72 28.35 81.28 28.46 81.84 28.52L81.12 32.67Z" fill="#1F2937"/>
<path d="M83.5 4.77L88.51 3.95V10.51H96.25V14.7H88.51V23.55C88.4 24.85 88.69 26.16 89.34 27.29C90.04 28.1 91.1 28.52 92.17 28.41C92.99 28.42 93.81 28.32 94.6 28.12C95.17 27.97 95.73 27.79 96.28 27.58L97.1 31.57C96.36 31.87 95.59 32.13 94.82 32.34C93.74 32.62 92.62 32.75 91.5 32.73C90.18 32.77 88.86 32.56 87.62 32.11C86.65 31.74 85.8 31.12 85.15 30.3C84.51 29.45 84.07 28.47 83.86 27.43C83.6 26.17 83.47 24.88 83.49 23.59V4.77H83.5Z" fill="#1F2937"/>
<path d="M97.44 21.47C97.41 19.75 97.69 18.05 98.29 16.44C98.79 15.1 99.56 13.87 100.55 12.84C101.47 11.9 102.57 11.16 103.79 10.68C104.98 10.2 106.25 9.95 107.53 9.95C110.16 9.8 112.72 10.82 114.53 12.73C116.21 14.59 117.04 17.36 117.04 21.04C117.04 21.32 117.04 21.63 117.02 21.97C117.01 22.32 116.98 22.63 116.96 22.9H102.64C102.68 24.44 103.35 25.9 104.48 26.95C105.84 27.99 107.53 28.5 109.23 28.38C110.35 28.38 111.47 28.28 112.57 28.05C113.38 27.89 114.18 27.65 114.96 27.34L115.64 31.46C115.27 31.64 114.89 31.78 114.5 31.9C113.95 32.07 113.4 32.21 112.84 32.32C112.22 32.45 111.54 32.55 110.82 32.63C110.09 32.71 109.36 32.76 108.62 32.75C106.92 32.79 105.23 32.5 103.63 31.9C102.3 31.39 101.11 30.58 100.14 29.54C99.21 28.51 98.52 27.29 98.11 25.96C97.65 24.5 97.43 22.98 97.44 21.45V21.47ZM112.02 19.24C112.02 18.57 111.93 17.9 111.73 17.26C111.55 16.67 111.26 16.11 110.88 15.63C110.51 15.17 110.04 14.8 109.51 14.55C108.91 14.27 108.24 14.13 107.58 14.15C106.88 14.13 106.18 14.28 105.55 14.59C104.99 14.87 104.48 15.26 104.07 15.74C103.66 16.22 103.35 16.77 103.13 17.37C102.91 17.98 102.75 18.61 102.67 19.25H112.02V19.24Z" fill="#1F2937"/>
<path d="M138.07 31.6C137.1 31.85 135.84 32.1 134.29 32.36C132.6 32.63 130.89 32.76 129.17 32.75C127.67 32.79 126.18 32.54 124.78 32C123.68 31.56 122.7 30.84 121.95 29.92C121.22 28.98 120.7 27.9 120.43 26.74C120.11 25.41 119.96 24.05 119.97 22.69V10.51H124.98V21.9C124.98 24.23 125.32 25.89 126 26.89C126.85 27.97 128.2 28.53 129.57 28.39C130.18 28.39 130.83 28.36 131.51 28.31C132.02 28.28 132.53 28.21 133.03 28.11V10.5H138.04V31.6H138.07Z" fill="#1F2937"/>
<path d="M147.79 28.62C148.78 28.68 149.78 28.52 150.7 28.14C151.31 27.83 151.67 27.18 151.61 26.5C151.61 25.78 151.24 25.1 150.63 24.71C149.63 24.07 148.55 23.55 147.41 23.17C146.55 22.86 145.72 22.51 144.9 22.11C144.19 21.77 143.52 21.33 142.93 20.8C142.37 20.3 141.93 19.68 141.62 18.99C141.28 18.17 141.12 17.28 141.14 16.39C141.07 14.55 141.89 12.8 143.34 11.67C145.08 10.44 147.19 9.83 149.32 9.94C150.55 9.94 151.77 10.05 152.97 10.3C153.86 10.46 154.73 10.69 155.59 10.98L154.66 15.06C153.98 14.77 153.27 14.54 152.55 14.37C151.57 14.15 150.57 14.04 149.57 14.05C148.71 14.01 147.86 14.19 147.09 14.57C146.48 14.87 146.11 15.5 146.14 16.17C146.14 16.5 146.2 16.82 146.33 17.13C146.48 17.44 146.7 17.7 146.98 17.9C147.35 18.18 147.76 18.41 148.18 18.61C148.78 18.88 149.39 19.13 150.01 19.34C151.04 19.72 152.05 20.15 153.04 20.65C153.8 21.03 154.49 21.52 155.09 22.1C155.62 22.62 156.02 23.25 156.27 23.95C156.54 24.75 156.66 25.6 156.64 26.44C156.75 28.31 155.87 30.09 154.34 31.16C152.36 32.34 150.06 32.9 147.76 32.76C146.21 32.8 144.66 32.64 143.15 32.28C142.32 32.07 141.5 31.81 140.7 31.51L141.56 27.32C142.44 27.67 143.33 27.96 144.24 28.19C145.4 28.48 146.59 28.62 147.79 28.61V28.62Z" fill="#1F2937"/>
<path d="M18.76 24.49L24.78 34.82H37.61L25.22 13.35L18.76 24.49Z" fill="url(#paint0_linear_1_104)"/>
<path d="M0 34.83C0 34.83 11.87 36.49 14.93 31.28L25.25 13.47L18.82 2.27002L0 34.83Z" fill="#9D59E5"/>
<path d="M32.32 25.68L37.61 34.83L43.41 24.98C43.41 24.98 36.61 24.16 32.32 25.69V25.68Z" fill="url(#paint1_linear_1_104)"/>
<defs>
<linearGradient id="paint0_linear_1_104" x1="17.7685" y1="21.6654" x2="27.7124" y2="25.2603" gradientUnits="userSpaceOnUse">
<stop stop-color="#7A046C"/>
<stop offset="0.3" stop-color="#9F2591"/>
<stop offset="0.57" stop-color="#B92CA9"/>
<stop offset="0.81" stop-color="#C932B8"/>
<stop offset="1" stop-color="#CF34BD"/>
</linearGradient>
<linearGradient id="paint1_linear_1_104" x1="36.2857" y1="30.1084" x2="37.5868" y2="25.3027" gradientUnits="userSpaceOnUse">
<stop stop-color="#E274FF"/>
<stop offset="0.47" stop-color="#E788FF"/>
<stop offset="0.85" stop-color="#EC9EFF"/>
</linearGradient>
</defs>
</svg>

